<?xml version="1.0" encoding="utf-8"?>
<!-- Generator: Adobe Illustrator 16.0.3, SVG Export Plug-In . SVG Version: 6.00 Build 0)  -->
<!DOCTYPE svg PUBLIC "-//W3C//DTD SVG 1.1//EN" "http://www.w3.org/Graphics/SVG/1.1/DTD/svg11.dtd" [
	<!ENTITY ns_flows "http://ns.adobe.com/Flows/1.0/">
	<!ENTITY ns_extend "http://ns.adobe.com/Extensibility/1.0/">
	<!ENTITY ns_ai "http://ns.adobe.com/AdobeIllustrator/10.0/">
	<!ENTITY ns_graphs "http://ns.adobe.com/Graphs/1.0/">
]>
<svg version="1.1" id="Ebene_1" xmlns:x="&ns_extend;" xmlns:i="&ns_ai;" xmlns:graph="&ns_graphs;"
	 xmlns="http://www.w3.org/2000/svg" xmlns:xlink="http://www.w3.org/1999/xlink" xmlns:a="http://ns.adobe.com/AdobeSVGViewerExtensions/3.0/"
	 x="0px" y="0px" width="283.46px" height="283.46px" viewBox="0 0 283.46 283.46" enable-background="new 0 0 283.46 283.46"
	 xml:space="preserve">
<g>
	<polygon fill-rule="evenodd" clip-rule="evenodd" fill="#E20613" points="-0.236,0.418 283.229,0.418 283.229,283.884 
		-0.236,283.884 -0.236,0.418 	"/>
	<path fill-rule="evenodd" clip-rule="evenodd" fill="#FFFFFF" d="M200.812,210.772h27.476V69.04h-23.875
		c-1.381,9.528-5.923,16.173-14.842,20.993c-5.207,2.824-14.401,5.316-23.813,5.316v17.392h34.836L200.812,210.772L200.812,210.772
		L200.812,210.772z M54.928,69.152l-0.221,99.196c0,14.623,3.6,22.929,10.135,30.574c7.81,8.971,20.992,16.336,44.531,16.336
		c36.279,0,53.89-19.16,53.89-47.633l0,0l-0.112-98.473h-27.693v94.157c0,11.576-1.661,15.284-4.32,19.271
		c-3.932,5.984-11.02,10.414-21.821,10.414c-17.447,0-26.917-10.246-26.917-27.416l0.221-96.538L54.928,69.152L54.928,69.152z"/>
</g>
<g>
</g>
<g>
</g>
<g>
</g>
<g>
</g>
<g>
</g>
<g>
</g>
</svg>
