<?xml version="1.0" encoding="utf-8"?>
<!-- Generator: Adobe Illustrator 16.0.3, SVG Export Plug-In . SVG Version: 6.00 Build 0)  -->
<!DOCTYPE svg PUBLIC "-//W3C//DTD SVG 1.1//EN" "http://www.w3.org/Graphics/SVG/1.1/DTD/svg11.dtd" [
	<!ENTITY ns_flows "http://ns.adobe.com/Flows/1.0/">
	<!ENTITY ns_extend "http://ns.adobe.com/Extensibility/1.0/">
	<!ENTITY ns_ai "http://ns.adobe.com/AdobeIllustrator/10.0/">
	<!ENTITY ns_graphs "http://ns.adobe.com/Graphs/1.0/">
]>
<svg version="1.1" id="Ebene_1" xmlns:x="&ns_extend;" xmlns:i="&ns_ai;" xmlns:graph="&ns_graphs;"
	 xmlns="http://www.w3.org/2000/svg" xmlns:xlink="http://www.w3.org/1999/xlink" xmlns:a="http://ns.adobe.com/AdobeSVGViewerExtensions/3.0/"
	 x="0px" y="0px" width="283.46px" height="283.46px" viewBox="0 0 283.46 283.46" enable-background="new 0 0 283.46 283.46"
	 xml:space="preserve">
<g>
	<polygon fill="#009540" points="283.465,-0.001 283.465,283.466 0,283.466 0,-0.001 283.465,-0.001 	"/>
	<path fill-rule="evenodd" clip-rule="evenodd" fill="#FFFFFF" d="M36.28,70.667l-0.224,99.199c0,14.622,3.551,22.931,10.136,30.568
		c7.818,8.976,21,16.331,44.523,16.331c36.338,0,53.899-19.153,53.899-47.628l0,0l-0.117-98.47h-27.685v94.163
		c0,11.559-1.664,15.274-4.327,19.257c-3.934,5.987-11.024,10.419-21.813,10.419c-17.449,0-26.932-10.241-26.932-27.421
		l0.224-96.523L36.28,70.667L36.28,70.667z"/>
	<path fill="#FFFFFF" d="M209.609,182.344h-57.41v-12.323v-12.362l53.605-88.29h15.917h15.934v90.293h16.285v22.682h-16.285v31.937
		h-28.046V182.344L209.609,182.344z M209.609,159.662L209.609,159.662v-60.32L174.4,157.658l-1.188,2.004H209.609L209.609,159.662z"
		/>
</g>
<g>
</g>
<g>
</g>
<g>
</g>
<g>
</g>
<g>
</g>
<g>
</g>
</svg>
