<?xml version="1.0" encoding="utf-8"?>
<!-- Generator: Adobe Illustrator 16.0.3, SVG Export Plug-In . SVG Version: 6.00 Build 0)  -->
<!DOCTYPE svg PUBLIC "-//W3C//DTD SVG 1.1//EN" "http://www.w3.org/Graphics/SVG/1.1/DTD/svg11.dtd" [
	<!ENTITY ns_flows "http://ns.adobe.com/Flows/1.0/">
	<!ENTITY ns_extend "http://ns.adobe.com/Extensibility/1.0/">
	<!ENTITY ns_ai "http://ns.adobe.com/AdobeIllustrator/10.0/">
	<!ENTITY ns_graphs "http://ns.adobe.com/Graphs/1.0/">
]>
<svg version="1.1" id="Ebene_1" xmlns:x="&ns_extend;" xmlns:i="&ns_ai;" xmlns:graph="&ns_graphs;"
	 xmlns="http://www.w3.org/2000/svg" xmlns:xlink="http://www.w3.org/1999/xlink" xmlns:a="http://ns.adobe.com/AdobeSVGViewerExtensions/3.0/"
	 x="0px" y="0px" width="283.46px" height="283.46px" viewBox="0 0 283.46 283.46" enable-background="new 0 0 283.46 283.46"
	 xml:space="preserve">
<polygon fill-rule="evenodd" clip-rule="evenodd" fill="#9D6930" points="-0.236,0.418 283.229,0.418 283.229,283.883 
	-0.236,283.883 -0.236,0.418 "/>
<path fill-rule="evenodd" clip-rule="evenodd" fill="#FFFFFF" d="M36.042,71.09l-0.221,99.197c0,14.624,3.544,22.93,10.135,30.574
	c7.81,8.971,20.992,16.336,44.531,16.336c36.332,0,53.889-19.16,53.889-47.632l0,0l-0.109-98.476h-27.694v94.158
	c0,11.571-1.661,15.284-4.319,19.271c-3.933,5.984-11.022,10.414-21.822,10.414c-17.446,0-26.918-10.246-26.918-27.416l0.222-96.538
	L36.042,71.09L36.042,71.09z"/>
<path fill="#FFFFFF" d="M207.577,69.764c12.014,0,21.857,3.462,29.563,10.456c7.676,6.959,11.78,16.089,12.323,27.429l0,0h-28.142
	l0,0c0.066-4.516-1.254-8.114-3.937-10.829c-2.682-2.716-6.278-4.074-10.794-4.074h-1.188c-8.555-0.069-14.868,4.04-18.906,12.322
	c-3.16,6.417-5.096,15.785-5.771,28.108l0,0c7.705-8.08,16.971-12.12,27.866-12.12c12.867,0,23.393,4.413,31.57,13.273
	c8.184,8.86,12.288,20.2,12.288,34.048c0,14.736-4.648,26.785-13.984,36.121c-9.301,9.332-21.248,14.02-35.848,14.02
	c-16.331,0-28.685-6.11-37.137-18.332c-8.453-12.258-12.694-30.112-12.694-53.666c0-25.904,4.684-45.389,14.02-58.458
	c8.687-12.254,21.284-18.398,37.813-18.398L207.577,69.764L207.577,69.764z M181.234,169.093c0,7.635,2.037,13.948,6.11,18.973
	c4.074,5.06,9.164,7.569,15.274,7.569c6.959,0,12.252-2.24,15.92-6.752c3.632-4.516,5.466-11.104,5.466-19.79
	c0-7.573-1.971-13.649-5.872-18.23c-3.906-4.618-9.098-6.927-15.514-6.927c-6.415,0-11.611,2.309-15.513,6.957
	C183.2,155.479,181.234,161.52,181.234,169.093L181.234,169.093z"/>
<g>
</g>
<g>
</g>
<g>
</g>
<g>
</g>
<g>
</g>
<g>
</g>
</svg>
