<?xml version="1.0" encoding="UTF-8" standalone="no"?>
<svg
   xmlns:dc="http://purl.org/dc/elements/1.1/"
   xmlns:cc="http://creativecommons.org/ns#"
   xmlns:rdf="http://www.w3.org/1999/02/22-rdf-syntax-ns#"
   xmlns:svg="http://www.w3.org/2000/svg"
   xmlns="http://www.w3.org/2000/svg"
   viewBox="0 0 136.2375 136.2375"
   height="136.2375"
   width="136.2375"
   xml:space="preserve"
   version="1.1"
   id="svg2"><metadata
     id="metadata8"><rdf:RDF><cc:Work
         rdf:about=""><dc:format>image/svg+xml</dc:format><dc:type
           rdf:resource="http://purl.org/dc/dcmitype/StillImage" /><dc:title></dc:title></cc:Work></rdf:RDF></metadata><defs
     id="defs6" /><g
     transform="matrix(1.25,0,0,-1.25,0,136.2375)"
     id="g10"><g
       transform="scale(0.1,0.1)"
       id="g12"><path
         id="path14"
         style="fill:#9e51ae;fill-opacity:1;fill-rule:evenodd;stroke:none"
         d="m 0,1089.92 1089.92,0 L 1089.92,0 0,0 0,1089.92" /><path
         id="path16"
         style="fill:#ffffff;fill-opacity:1;fill-rule:evenodd;stroke:none"
         d="m 951.074,659.945 c 0,-42.488 -10.019,-77.75 -29.883,-105.679 -19.902,-27.93 -57.285,-59.27 -112.07,-94.141 -50.683,-31.992 -85.176,-60.969 -103.75,-86.797 l -0.391,-0.793 246.094,0 0,-96.758 -383.437,0 0,0 c 0,51.274 13.047,95.188 38.984,131.77 25.938,36.582 74.785,79.98 146.543,130.195 32.129,22.293 54.785,42.742 67.949,61.367 13.028,18.481 19.61,39.2 19.61,62.012 0,24.785 -7.227,44.844 -21.582,59.922 -14.356,15.078 -33.457,22.687 -57.012,22.687 -25.293,0 -44.902,-9.445 -59.121,-28.457 -14.102,-18.878 -20.684,-44.707 -19.629,-77.226 l -108.359,0 0,0 c -1.836,60.707 14.218,108.824 48.066,144.488 33.691,35.535 80.312,53.363 139.824,53.363 55.176,0 100.469,-16.386 135.762,-49.168 34.883,-32.777 52.402,-74.996 52.402,-126.785 l 0,0" /><path
         id="path18"
         style="fill:#ffffff;fill-opacity:1;fill-rule:evenodd;stroke:none"
         d="m 136.684,822.898 -0.856,-381.406 c 0,-56.219 13.629,-88.176 38.973,-117.558 30.027,-34.5 80.711,-62.825 171.219,-62.825 139.699,0 207.203,73.684 207.203,183.149 l 0,0.008 -0.41,378.632 -106.497,0 0,-362.031 c 0,-44.504 -6.382,-58.777 -16.605,-74.109 -15.117,-23 -42.383,-40.039 -83.906,-40.039 -67.078,0 -103.496,39.402 -103.496,105.418 l 0.855,371.187 -106.48,-0.426 0,0" /></g></g></svg>