<?xml version="1.0" encoding="UTF-8" standalone="no"?>
<svg
   xmlns:dc="http://purl.org/dc/elements/1.1/"
   xmlns:cc="http://creativecommons.org/ns#"
   xmlns:rdf="http://www.w3.org/1999/02/22-rdf-syntax-ns#"
   xmlns:svg="http://www.w3.org/2000/svg"
   xmlns="http://www.w3.org/2000/svg"
   viewBox="0 0 137.5 137.5"
   height="137.5"
   width="137.5"
   xml:space="preserve"
   version="1.1"
   id="svg2"><metadata
     id="metadata8"><rdf:RDF><cc:Work
         rdf:about=""><dc:format>image/svg+xml</dc:format><dc:type
           rdf:resource="http://purl.org/dc/dcmitype/StillImage" /><dc:title></dc:title></cc:Work></rdf:RDF></metadata><defs
     id="defs6" /><g
     transform="matrix(1.25,0,0,-1.25,0,137.5)"
     id="g10"><g
       transform="scale(0.1,0.1)"
       id="g12"><path
         id="path14"
         style="fill:#f47216;fill-opacity:1;fill-rule:evenodd;stroke:none"
         d="m 1.14453,5.75 1089.91997,0 0,1089.92 -1089.91997,0 0,-1089.92 z" /><path
         id="path16"
         style="fill:#ffffff;fill-opacity:1;fill-rule:evenodd;stroke:none"
         d="m 140.629,823.938 -0.848,-381.407 c 0,-56.226 13.629,-88.168 38.969,-117.554 30.027,-34.504 80.711,-62.825 171.219,-62.825 139.699,0 207.207,73.684 207.207,183.141 l 0,0.008 -0.426,378.637 -106.48,0 0,-362.032 c 0,-44.5 -6.387,-58.777 -16.61,-74.109 -15.117,-23 -42.379,-40.035 -83.902,-40.035 -67.082,0 -103.5,39.398 -103.5,105.414 l 0.851,371.183 -106.48,-0.421" /><path
         id="path18"
         style="fill:#ffffff;fill-opacity:1;fill-rule:nonzero;stroke:none"
         d="m 843.383,666.797 c 0,21.664 -6.266,39.285 -18.797,52.598 -12.398,13.445 -28.977,20.101 -49.731,20.101 -23.882,0 -42.55,-7.57 -55.601,-22.711 -13.184,-15.269 -19.969,-36.808 -20.488,-64.867 l -100.899,0 0,0 c 0.785,56.773 17.098,100.633 49.207,131.305 31.981,30.672 77.008,46.074 135.094,46.074 49.988,0 90.973,-14.488 122.82,-43.594 31.848,-29.109 47.77,-66.437 47.77,-111.988 0,-39.551 -16.574,-71.918 -49.727,-97.242 l -15.011,-9.918 0,0 c 12.793,-4.828 24.015,-11.227 33.675,-19.059 31.977,-24.797 47.903,-61.996 47.903,-111.726 0,-54.821 -17.231,-98.282 -51.817,-130.391 -34.59,-32.109 -81.187,-48.164 -139.793,-48.164 -60.429,0 -107.289,15.926 -140.57,47.64 -33.281,31.719 -50.25,76.879 -51.035,135.485 l 106.637,0 0,0 c 0.523,-31.328 7.57,-55.211 21.273,-71.656 13.578,-16.45 33.285,-24.672 59.129,-24.672 24.93,0 45.16,8.222 60.433,24.801 15.27,16.578 22.973,38.371 22.973,65.394 0,23.754 -7.703,42.941 -22.973,57.43 -13.574,12.527 -30.675,19.445 -51.296,21.011 -11.485,0.782 -22.192,1.172 -31.977,1.305 -9.793,0.129 -16.055,-0.133 -18.93,-0.914 l 0,81.055 c 3.004,-0.391 9.528,-0.524 19.582,-0.133 9.918,0.394 20.493,1.18 31.715,2.48 17.36,2.09 31.067,8.094 41.246,18.012 12.793,12.274 19.188,29.633 19.188,52.344" /></g></g></svg>